<?xml version="1.0" encoding="utf-8"?>
<!-- Generator: Adobe Illustrator 16.0.0, SVG Export Plug-In . SVG Version: 6.00 Build 0)  -->
<!DOCTYPE svg PUBLIC "-//W3C//DTD SVG 1.1//EN" "http://www.w3.org/Graphics/SVG/1.1/DTD/svg11.dtd">
<svg version="1.1" id="Layer_1" xmlns="http://www.w3.org/2000/svg" xmlns:xlink="http://www.w3.org/1999/xlink" x="0px" y="0px"
	 width="3685.04px" height="1700.79px" viewBox="0 0 3685.04 1700.79" enable-background="new 0 0 3685.04 1700.79"
	 xml:space="preserve">
<rect x="2.234" y="-0.007" width="3685.04" height="1700.787"/>
<g>
	<g>
		<path fill="#039BB8" d="M1038.498,721.218l46.082-58.291l-16.003-85.062c0,0-39.749-39.292-105.314-11.624l-36.782,77.531
			c0,0,71.753-1.983,97.284,30.907L1038.498,721.218z"/>
		<path fill="#34BFC3" d="M967.527,563.375c0,0-164.281,117.31-130.273,328.222c0,0,31.149,72.526,66.713,48.992
			c0,0,96.193-30.465,140.378-134.581c0,0-76.311,104.046-111.519,63.982C932.827,869.99,843.458,790.419,967.527,563.375z"/>
	</g>
	<g>
		<path fill="#33BEBD" d="M1260.358,814.352c-26.351,73.666-88.178,118.92-138.11,101.079
			c-49.928-17.872-69.04-92.064-42.689-165.731c26.344-73.68,88.17-118.935,138.11-101.079
			C1267.575,666.479,1286.709,740.672,1260.358,814.352z"/>
		<path fill="#FFFEF9" d="M1148.39,718.137c0,0-69.644,134.695-13.213,188.165c0,0,27.633,13.065,69.415-51.159
			C1204.592,855.143,1212.886,743.039,1148.39,718.137z"/>
		<path fill="#069EA4" d="M1148.248,718.137c0,0,7.074,3.294,17.627,12.408c15.889,13.721,37.598,44.171,38.574,124.597
			c0,0,80.576-152.01,21.015-201.687C1225.464,653.456,1192.662,639.894,1148.248,718.137z"/>
	</g>
	<g>
		<path fill="#22BDBE" d="M1273.379,669.73c0,0,53.014-43.415,100.309-9.199c0,0,34.866,36.883,41.989,91.594l-15.753,159.226
			l-64.936,19.368C1334.987,930.719,1384.05,676.933,1273.379,669.73z"/>
		<path fill="#039FB1" d="M1399.923,911.351c0,0,40.849-171.919,77.061-214.279c0,0-44.342,19.426-62.164,49.634L1399.923,911.351z"
			/>
		<g>
			<path fill="#22BDBE" d="M1625.186,692.136c0,0,43.415-35.356,80.333-6.475c0,0,19.889,27.569,20.702,63.382l-13.106,145.705
				l-67.934,26.486C1645.181,921.235,1669.841,710.493,1625.186,692.136z"/>
			<path fill="#039FB1" d="M1555.918,902.993c0,0,39.515-172.219,75.399-214.864c0,0-44.185,19.781-61.771,50.118L1555.918,902.993z
				"/>
			<path fill="#22BDBE" d="M1633.771,698.954c0,0-6.303-7.602-12.193,3.623c-5.892,11.21,3.764-11.51,3.764-11.51l8.6-4.835
				L1633.771,698.954z"/>
		</g>
		<path fill="#22BDBE" d="M1470.815,701.022c0,0,43.687-35.028,80.383-5.862c0,0,19.675,27.726,20.217,63.54l-8.679,143.496
			l-68.125,25.957C1494.612,928.152,1515.321,719.721,1470.815,701.022z"/>
	</g>
	<g>
		<path fill="#33BEBD" d="M1844.741,854.059c0,0-15.788,49.861-18.824,195.382l-68.396,33.744c0,0,36.033-364.249-12.145-425.749
			l43.172-26.101c0,0,28.725,41.29,44.227,184.914l30.288-63.269L1844.741,854.059z"/>
		<g>
			<path fill="#33BEBD" d="M2002.442,823.808c-30.172,72.183-94.29,114.144-143.217,93.69
				c-48.919-20.452-64.116-95.545-33.938-167.742c30.166-72.182,94.282-114.128,143.217-93.69
				C2017.403,676.519,2032.622,751.611,2002.442,823.808z"/>
			<path fill="#FFFEF9" d="M1895.674,721.859c0,0-76.604,130.858-23.063,187.21c0,0,26.914,14.505,72.011-47.452
				C1944.622,861.617,1958.777,750.099,1895.674,721.859z"/>
			<path fill="#069EA4" d="M1895.531,721.845c0,0,6.895,3.666,16.957,13.321c15.147,14.533,35.229,46.082,31.992,126.437
				c0,0,88.426-147.56,31.555-200.303C1976.035,661.301,1943.987,646.04,1895.531,721.845z"/>
		</g>
	</g>
	<g>
		<path fill="#32BFC2" d="M2232.881,620.497c0,0-167.576,49.504-190.432,229.326c0,0-3.267,84.063,80.525,47.066
			c0,0,80.525-35.912,109.906-60.943c0,0-2.182,64.51,25.025,70.343c27.206,5.834,39.17,1.797,46.787,0l22.848-12.666
			c0,0-43.521,4.351-36.996-124.054c0,0-71.597,62.013-150.156,95.758c0,0-50.061,4.351-27.212-69.644
			C2113.177,795.683,2180.646,655.325,2232.881,620.497z"/>
		<polygon fill="#32BFC2" points="2185.609,676.776 2168.2,676.776 2228.945,621.794 		"/>
		<path fill="#039BB8" d="M2238.43,760.254l54.283-33.73c0,0,30.479-114.257-63.111-105.557l-44.615,55.495
			C2184.986,676.462,2241.809,681.91,2238.43,760.254z"/>
	</g>
	<g>
		<polygon fill="#2FBEBE" points="2632.444,669.559 2648.963,622.449 2474.287,682.766 2454.648,733.284 2474.986,733.284 		"/>
		<path fill="#039CAF" d="M2474.986,733.284c0,0,177.012-17.543,173.977,68.502c0,0,22.205-16.672,22.676-34.985v-22.307
			c0,0-21.18-41.846-106.813-47.579L2474.986,733.284z"/>
		<path fill="#2FBEBE" d="M2670.91,772.134c0,0-21.721,97.457-140.043,121.318c0,0-79.955,29.408-136.077,11.681
			c0,0-28.055-17.301-33.675-26.187c0,0,8.431,17.301,11.695,20.11c0,0-57.521-42.559-0.94-130.473c0,0-45.355,90.252,28.54,123.457
			c0,0,71.068,18.712,134.209-12.622l-13.095-0.472c0,0,90.726-25.715,127.438-77.161L2670.91,772.134z"/>
	</g>
	<g>
		<polygon fill="#2FBEBE" points="2973.604,652.273 2990.121,605.164 2815.446,665.495 2795.808,715.998 2816.146,715.998 		"/>
		<path fill="#039CAF" d="M2816.146,715.998c0,0,177.012-17.528,173.975,68.517c0,0,22.205-16.673,22.677-35v-22.292
			c0,0-21.181-41.861-106.812-47.58L2816.146,715.998z"/>
		<path fill="#2FBEBE" d="M3012.068,754.862c0,0-21.721,97.456-140.042,121.303c0,0-79.956,29.425-136.079,11.695
			c0,0-28.053-17.3-33.674-26.187c0,0,8.431,17.302,11.695,20.111c0,0-57.52-42.559-0.94-130.473c0,0-45.355,90.252,28.54,123.456
			c0,0,71.069,18.698,134.209-12.637l-13.093-0.457c0,0,90.724-25.729,127.437-77.159L3012.068,754.862z"/>
	</g>
</g>
<g>
	<path fill="#FFFFFF" d="M400.712,798.193L280.294,636.149c0,0-6.338-17.43,15.844-12.147l158.402,120.418L609.86,628.23
		c0,0,21.124-10.565,15.845,11.617L510.566,798.193l115.987,161.713c0,0,4.431,16.902-13.523,11.621L454.541,855.333
		L297.197,972.551c0,0-24.918,7.428-17.741-13.699L400.712,798.193z"/>
	<path fill="#FFFFFF" d="M365.854,787.73l-74.995-100.35c0,0-27.465,38.03-31.689,80.281l-20.071,4.224
		c0,0-1.105-51.757,39.061-101.404l-18.989-28.52c0,0-54.929,53.868-54.929,140.487c0,0-33.801-0.198-36.97,15.746
		c0,0-3.169,12.775,38.028,18.057c0,0-6.337,66.547,52.813,139.432l20.047-28.52c0,0-39.061-47.533-39.061-101.404l21.124,6.338
		c0,0,2.117,47.529,30.637,77.108l74.995-99.292l-166.893-1.055c0,0-19.017-10.565,1.052-21.127H365.854z"/>
	<path fill="#FFFFFF" d="M466.857,711.587l100.349-74.996c0,0-38.03-27.464-80.281-31.688l-4.224-20.072
		c0,0,51.758-1.105,101.405,39.061l28.521-18.989c0,0-53.868-54.93-140.487-54.93c0,0,0.198-33.799-15.746-36.968
		c0,0-12.775-3.169-18.058,38.027c0,0-66.547-6.338-139.432,52.813l28.521,20.048c0,0,47.533-39.061,101.404-39.061l-6.337,21.127
		c0,0-47.531,2.113-77.109,30.633l99.292,74.996l1.056-166.894c0,0,10.565-19.017,21.127,1.056V711.587z"/>
	<path fill="#FFFFFF" d="M541.949,809.912l74.995,100.35c0,0,27.465-38.029,31.689-80.279l20.072-4.225
		c0,0,1.105,51.758-39.061,101.404l18.989,28.52c0,0,54.93-53.867,54.93-140.486c0,0,33.799,0.198,36.968-15.746
		c0,0,3.168-12.774-38.027-18.058c0,0,6.338-66.546-52.813-139.431l-20.047,28.52c0,0,39.061,47.533,39.061,101.404l-21.127-6.337
		c0,0-2.114-47.53-30.634-77.108l-74.995,99.291l166.893,1.055c0,0,19.017,10.565-1.055,21.126H541.949z"/>
	<path fill="#FFFFFF" d="M443.449,887.635L343.097,962.63c0,0,38.033,27.465,80.281,31.688l4.228,20.072
		c0,0-51.761,1.104-101.405-39.061l-28.521,18.988c0,0,53.866,54.93,140.484,54.93c0,0-0.198,33.8,15.745,36.969
		c0,0,12.775,3.169,18.061-38.027c0,0,66.547,6.338,139.432-52.813l-28.521-20.047c0,0-47.533,39.061-101.404,39.061l6.338-21.127
		c0,0,47.527-2.114,77.105-30.634l-99.288-74.995l-1.059,166.893c0,0-10.565,19.018-21.124-1.055V887.635z"/>
</g>
</svg>
